<svg width="37" height="37" viewBox="0 0 37 37" fill="none" xmlns="http://www.w3.org/2000/svg">
<path d="M18.5 26.2083C16.8042 26.2083 15.4167 24.8208 15.4167 23.125C15.4167 21.4291 16.8042 20.0416 18.5 20.0416C20.1958 20.0416 21.5833 21.4291 21.5833 23.125C21.5833 24.8208 20.1958 26.2083 18.5 26.2083ZM18.5 15.4166C22.1075 15.4166 29.2917 17.205 29.2917 20.8125V28.7212C29.2917 30.0625 28.2279 31.2033 26.7325 32.0512V20.6275C26.7325 19.7641 22.5083 17.7908 18.5 17.7908C14.4917 17.7908 10.2675 19.7641 10.2675 20.6275V28.9062C10.2675 29.2916 11.2696 30.0008 12.765 30.6021C13.875 29.2917 16.8504 28.6133 18.5 28.6133C20.5504 28.6133 24.6667 29.6308 24.6667 31.6966V32.9762C22.5546 33.7316 20.1496 34.1171 18.5 34.1171C16.8504 34.1171 14.4608 33.7316 12.3333 32.9762C9.82042 32.0821 7.70834 30.6637 7.70834 28.7212V20.8125C7.70834 17.205 14.8925 15.4166 18.5 15.4166ZM18.5 5.78123C17.0046 5.78123 15.8021 6.98373 15.8021 8.47915C15.8021 9.97456 17.0046 11.1771 18.5 11.1771C19.9954 11.1771 21.1979 9.97456 21.1979 8.47915C21.1979 6.98373 19.9954 5.78123 18.5 5.78123ZM18.5 13.875C15.5246 13.875 13.1042 11.4546 13.1042 8.47915C13.1042 5.50373 15.5246 3.08331 18.5 3.08331C21.4754 3.08331 23.8958 5.50373 23.8958 8.47915C23.8958 11.4546 21.4754 13.875 18.5 13.875Z" fill="black"/>
</svg>
